<?xml version="1.0" encoding="UTF-8" standalone="yes"?>
<svg xmlns="http://www.w3.org/2000/svg" xmlns:xlink="http://www.w3.org/1999/xlink" width="60px" height="60px" viewBox="0 0 60 60" version="1.1" fill="#000000">
  <g id="surface69097">
    <path style="fill:none;stroke-width:2;stroke-linecap:butt;stroke-linejoin:round;stroke:#FFFFFF;stroke-opacity:1;stroke-miterlimit:10;" d="M 21 15 L 29 15 " transform="matrix(2,0,0,2,0,0)"/>
    <path style="fill:none;stroke-width:2;stroke-linecap:round;stroke-linejoin:round;stroke:#FFFFFF;stroke-opacity:1;stroke-miterlimit:10;" d="M 25 11 L 29 15 L 25 19 " transform="matrix(2,0,0,2,0,0)"/>
    <path style="stroke:none;fill-rule:nonzero;fill:#FFFFFF;fill-opacity:1;" d="M 28 28 L 42 28 L 42 19 C 42 18.46875 41.789062 17.960938 41.414062 17.585938 L 30.414062 6.585938 C 30.039062 6.210938 29.53125 6 29 6 L 10 6 C 7.789062 6 6 7.789062 6 10 L 6 50 C 6 52.210938 7.789062 54 10 54 L 38 54 C 40.210938 54 42 52.210938 42 50 L 42 32 L 28 32 C 26.894531 32 26 31.105469 26 30 C 26 28.894531 26.894531 28 28 28 Z M 28 28 "/>
  </g>
</svg>
