<?xml version="1.0"?>
<svg xmlns="http://www.w3.org/2000/svg" viewBox="0 0 30 30" width="60px" height="60px">
    <path fill="#FFFFFF" d="M 5 3 A 2 2 0 0 0 3 5 A 2 2 0 0 0 4 6.7304688 L 4 16.271484 A 2 2 0 0 0 3 18 A 2 2 0 0 0 5 20 A 2 2 0 0 0 6.7304688 19 L 16.271484 19 A 2 2 0 0 0 18 20 A 2 2 0 0 0 20 18 A 2 2 0 0 0 19 16.269531 L 19 6.7285156 A 2 2 0 0 0 20 5 A 2 2 0 0 0 18 3 A 2 2 0 0 0 16.269531 4 L 6.7285156 4 A 2 2 0 0 0 5 3 z M 6.7304688 6 L 16.271484 6 A 2 2 0 0 0 17 6.7304688 L 17 16.271484 A 2 2 0 0 0 16.269531 17 L 6.7285156 17 A 2 2 0 0 0 6 16.269531 L 6 6.7285156 A 2 2 0 0 0 6.7304688 6 z M 25 10 A 2 2 0 0 0 23.269531 11 L 21 11 L 21 13 L 23.271484 13 A 2 2 0 0 0 24 13.730469 L 24 23.271484 A 2 2 0 0 0 23.269531 24 L 13.728516 24 A 2 2 0 0 0 13 23.269531 L 13 21 L 11 21 L 11 23.271484 A 2 2 0 0 0 10 25 A 2 2 0 0 0 12 27 A 2 2 0 0 0 13.730469 26 L 23.271484 26 A 2 2 0 0 0 25 27 A 2 2 0 0 0 27 25 A 2 2 0 0 0 26 23.269531 L 26 13.728516 A 2 2 0 0 0 27 12 A 2 2 0 0 0 25 10 z"/>
</svg>
