<?xml version="1.0"?>
<svg xmlns="http://www.w3.org/2000/svg" viewBox="0 0 30 30" width="60px" height="60px">
    <path fill="#FFFFFF" d="M 5 3 A 2 2 0 0 0 3 5 A 2 2 0 0 0 4 6.7304688 L 4 23.271484 A 2 2 0 0 0 3 25 A 2 2 0 0 0 5 27 A 2 2 0 0 0 6.7304688 26 L 23.271484 26 A 2 2 0 0 0 25 27 A 2 2 0 0 0 27 25 A 2 2 0 0 0 26 23.269531 L 26 6.7285156 A 2 2 0 0 0 27 5 A 2 2 0 0 0 25 3 A 2 2 0 0 0 23.269531 4 L 6.7285156 4 A 2 2 0 0 0 5 3 z M 6.7304688 6 L 23.271484 6 A 2 2 0 0 0 24 6.7304688 L 24 23.271484 A 2 2 0 0 0 23.269531 24 L 6.7285156 24 A 2 2 0 0 0 6 23.269531 L 6 6.7285156 A 2 2 0 0 0 6.7304688 6 z M 10 9 C 9.448 9 9 9.448 9 10 L 9 16 C 9 16.552 9.448 17 10 17 L 11 17 L 11 13 C 11 11.895 11.895 11 13 11 L 17 11 L 17 10 C 17 9.448 16.552 9 16 9 L 10 9 z M 14 13 C 13.448 13 13 13.448 13 14 L 13 20 C 13 20.552 13.448 21 14 21 L 20 21 C 20.552 21 21 20.552 21 20 L 21 14 C 21 13.448 20.552 13 20 13 L 14 13 z"/>
</svg>
