<!-- Generator: Adobe Illustrator 19.1.0, SVG Export Plug-In  -->
<svg version="1.1"
	 xmlns="http://www.w3.org/2000/svg" xmlns:xlink="http://www.w3.org/1999/xlink" xmlns:a="http://ns.adobe.com/AdobeSVGViewerExtensions/3.0/"
	 x="0px" y="0px" width="31.8px" height="12.5px" viewBox="0 0 31.8 12.5" style="enable-background:new 0 0 31.8 12.5;"
	 xml:space="preserve">
<style type="text/css">
	.st0{fill:#8FC31F;}
</style>
<defs>
</defs>
<path class="st0" d="M9.6,9.8H6.2c-2,0-3.6-1.6-3.6-3.6c0-2,1.6-3.6,3.6-3.6l8.7,0c2,0,3.6,1.6,3.6,3.6c0,0.6-0.2,1.3-0.5,1.8h2.9
	c0.2-0.6,0.3-1.2,0.3-1.8C21.2,2.8,18.4,0,15,0L6.2,0C2.8,0,0,2.8,0,6.2c0,3.4,2.8,6.2,6.2,6.2l5.6,0C10.9,11.7,10.2,10.8,9.6,9.8z
	 M25.5,0L20,0c0.9,0.7,1.6,1.6,2.1,2.7h3.4c2,0,3.6,1.6,3.6,3.6c0,2-1.6,3.6-3.6,3.6l-8.7,0c-2,0-3.6-1.6-3.6-3.6
	c0-0.6,0.2-1.3,0.5-1.8l-2.9,0c-0.2,0.6-0.3,1.2-0.3,1.8c0,3.4,2.8,6.2,6.2,6.2l8.7,0c3.4,0,6.2-2.8,6.2-6.2C31.8,2.8,29,0,25.5,0z"
	/>
</svg>
