<?xml version="1.0" encoding="utf-8"?>
<!-- Generator: Adobe Illustrator 16.0.0, SVG Export Plug-In . SVG Version: 6.00 Build 0)  -->
<!DOCTYPE svg PUBLIC "-//W3C//DTD SVG 1.1//EN" "http://www.w3.org/Graphics/SVG/1.1/DTD/svg11.dtd">
<svg version="1.1" id="圖層_1" xmlns="http://www.w3.org/2000/svg" xmlns:xlink="http://www.w3.org/1999/xlink" x="0px" y="0px"
	 width="28px" height="14px" viewBox="406.945 290.64 28 14" enable-background="new 406.945 290.64 28 14" xml:space="preserve">
<path fill="#65CC56" d="M431.833,290.64h-21.777c-1.719,0-3.111,1.393-3.111,3.111v7.777c0,1.719,1.393,3.111,3.111,3.111h21.777
	c1.719,0,3.111-1.393,3.111-3.111v-7.777C434.945,292.033,433.552,290.64,431.833,290.64z M434.167,301.529
	c0,1.287-1.047,2.334-2.334,2.334h-21.777c-1.287,0-2.334-1.047-2.334-2.334v-7.777c0-1.287,1.047-2.334,2.334-2.334h21.777
	c1.287,0,2.334,1.047,2.334,2.334V301.529z M428.257,297.456v-0.036c0.352-0.052,0.646-0.213,0.881-0.483
	c0.236-0.271,0.354-0.585,0.354-0.943c0-0.504-0.181-0.904-0.543-1.198c-0.361-0.295-0.85-0.442-1.467-0.442h-2.903v6.576h2.954
	c0.701,0,1.256-0.169,1.662-0.506c0.408-0.337,0.611-0.796,0.611-1.376c0-0.432-0.146-0.796-0.438-1.094
	S428.707,297.489,428.257,297.456z M425.955,295.377h1.172c0.322,0,0.571,0.072,0.748,0.217c0.176,0.144,0.264,0.349,0.264,0.612
	c0,0.28-0.1,0.496-0.301,0.649s-0.484,0.23-0.852,0.23h-1.031V295.377z M428.09,299.655c-0.208,0.165-0.511,0.248-0.909,0.248
	h-1.227v-1.909h1.195c0.406,0,0.717,0.08,0.932,0.241c0.214,0.161,0.32,0.395,0.32,0.702
	C428.402,299.25,428.298,299.489,428.09,299.655z M416.216,298.467c0,0.429-0.121,0.768-0.362,1.019s-0.579,0.376-1.015,0.376
	c-0.438,0-0.776-0.125-1.018-0.376c-0.242-0.251-0.362-0.59-0.362-1.019v-4.115h-1.376v4.252c0,0.729,0.25,1.317,0.749,1.766
	c0.5,0.448,1.169,0.673,2.007,0.673c0.836,0,1.504-0.225,2.004-0.673s0.749-1.036,0.749-1.766v-4.252h-1.376V298.467z
	 M421.844,297.109l-0.798-0.168c-0.379-0.089-0.653-0.194-0.822-0.319c-0.168-0.125-0.253-0.287-0.253-0.487
	c0-0.243,0.104-0.439,0.313-0.588c0.208-0.149,0.482-0.224,0.822-0.224c0.347,0,0.632,0.08,0.854,0.239
	c0.224,0.159,0.346,0.378,0.367,0.654h1.289c-0.012-0.599-0.244-1.078-0.697-1.438c-0.452-0.359-1.059-0.54-1.818-0.54
	c-0.738,0-1.342,0.186-1.811,0.557c-0.47,0.37-0.705,0.856-0.705,1.458c0,0.966,0.604,1.578,1.81,1.837l0.856,0.187
	c0.398,0.088,0.683,0.197,0.853,0.328c0.171,0.131,0.255,0.303,0.255,0.515c0,0.243-0.114,0.443-0.344,0.6
	c-0.229,0.156-0.526,0.234-0.891,0.234c-0.367,0-0.678-0.082-0.932-0.248s-0.396-0.382-0.427-0.649h-1.326
	c0.021,0.617,0.267,1.103,0.736,1.456s1.101,0.531,1.894,0.531c0.817,0,1.466-0.188,1.945-0.563c0.48-0.375,0.721-0.882,0.721-1.52
	c0-0.501-0.15-0.9-0.451-1.196S422.503,297.249,421.844,297.109z"/>
</svg>
