<!-- Generator: Adobe Illustrator 19.1.0, SVG Export Plug-In  -->
<svg version="1.1"
	 xmlns="http://www.w3.org/2000/svg" xmlns:xlink="http://www.w3.org/1999/xlink" xmlns:a="http://ns.adobe.com/AdobeSVGViewerExtensions/3.0/"
	 x="0px" y="0px" width="23.4px" height="23.4px" viewBox="0 0 23.4 23.4" style="enable-background:new 0 0 23.4 23.4;"
	 xml:space="preserve">
<style type="text/css">
	.st0{fill:#E0E0DF;}
	.st1{fill:#FFFFFF;}
</style>
<defs>
</defs>
<g>
	<circle class="st0" cx="11.7" cy="11.7" r="11.7"/>
	<g>
		<path class="st1" d="M7.6,7.9c0.2-0.6,0.5-1.1,0.9-1.5c0.4-0.4,0.8-0.8,1.4-1C10.4,5.2,11,5,11.7,5c0.6,0,1.2,0.1,1.7,0.3
			c0.5,0.2,0.9,0.4,1.3,0.8c0.4,0.3,0.7,0.7,0.9,1.2c0.2,0.5,0.3,1,0.3,1.7c0,0.4,0,0.8-0.1,1.1c-0.1,0.3-0.2,0.6-0.4,0.9
			c-0.2,0.3-0.3,0.5-0.5,0.7c-0.2,0.2-0.4,0.4-0.6,0.6c-0.2,0.2-0.4,0.4-0.6,0.6c-0.2,0.2-0.4,0.4-0.5,0.6c-0.2,0.2-0.3,0.5-0.4,0.7
			s-0.1,0.6-0.1,0.9V16h-1.7v-0.9c0-0.5,0.1-1,0.3-1.4c0.2-0.4,0.4-0.7,0.6-1c0.3-0.3,0.5-0.6,0.8-0.8c0.3-0.3,0.5-0.5,0.8-0.8
			c0.2-0.3,0.4-0.6,0.6-0.9c0.1-0.3,0.2-0.8,0.2-1.2c-0.1-0.7-0.3-1.3-0.7-1.7c-0.4-0.4-1-0.6-1.7-0.6c-0.5,0-0.9,0.1-1.2,0.3
			c-0.3,0.2-0.6,0.4-0.9,0.7c-0.2,0.3-0.4,0.6-0.5,1C9,8.9,9,9.3,9,9.8H7.3C7.3,9.1,7.4,8.5,7.6,7.9z M12.7,17.2v2.2h-2.2v-2.2H12.7
			z"/>
	</g>
</g>
</svg>
