<?xml version="1.0" encoding="utf-8"?>
<!-- Generator: Adobe Illustrator 16.0.0, SVG Export Plug-In . SVG Version: 6.00 Build 0)  -->
<!DOCTYPE svg PUBLIC "-//W3C//DTD SVG 1.1//EN" "http://www.w3.org/Graphics/SVG/1.1/DTD/svg11.dtd">
<svg version="1.1" id="圖層_1" xmlns="http://www.w3.org/2000/svg" xmlns:xlink="http://www.w3.org/1999/xlink" x="0px" y="0px"
	 width="28px" height="14px" viewBox="406.945 290.64 28 14" enable-background="new 406.945 290.64 28 14" xml:space="preserve">
<path fill="#14B6EF" d="M431.833,290.64h-21.777c-1.719,0-3.111,1.393-3.111,3.111v7.777c0,1.719,1.393,3.111,3.111,3.111h21.777
	c1.719,0,3.111-1.393,3.111-3.111v-7.777C434.945,292.033,433.552,290.64,431.833,290.64z M434.167,301.529
	c0,1.287-1.047,2.334-2.334,2.334h-21.777c-1.287,0-2.334-1.047-2.334-2.334v-7.777c0-1.287,1.047-2.334,2.334-2.334h21.777
	c1.287,0,2.334,1.047,2.334,2.334V301.529z M421.143,300.928h1.376v-6.576h-1.376V300.928z M417.939,299.115h-0.036l-1.23-4.763
	h-1.162l-1.23,4.763h-0.036l-1.035-4.763h-1.426l1.74,6.576h1.299l1.249-4.493h0.041l1.249,4.493h1.299l1.745-6.576h-1.427
	L417.939,299.115z M428.73,300.928h1.377v-6.576h-1.377V300.928z M423.613,300.928h1.376v-2.588h2.675v-1.09h-2.675v-1.764h2.931
	v-1.135h-4.307V300.928z"/>
</svg>
