<!-- Generator: Adobe Illustrator 19.1.0, SVG Export Plug-In  -->
<svg version="1.1"
	 xmlns="http://www.w3.org/2000/svg" xmlns:xlink="http://www.w3.org/1999/xlink" xmlns:a="http://ns.adobe.com/AdobeSVGViewerExtensions/3.0/"
	 x="0px" y="0px" width="3.1px" height="9.1px" viewBox="0 0 3.1 9.1" style="enable-background:new 0 0 3.1 9.1;"
	 xml:space="preserve">
<style type="text/css">
	.st0{fill:#E0E0DF;}
</style>
<defs>
</defs>
<g>
	<path class="st0" d="M1.6,6.8L1.6,6.8C1.3,6.8,1,6.6,1,6.3V2.9c0-0.3,0.2-0.5,0.5-0.5h0c0.3,0,0.5,0.2,0.5,0.5v3.4
		C2.1,6.6,1.9,6.8,1.6,6.8z"/>
	<path class="st0" d="M2.4,5v2.4c0,0.5-0.4,0.8-0.8,0.8h0c-0.5,0-0.8-0.4-0.8-0.8V5h0C0.3,5,0,5.3,0,5.7v1.9c0,0.9,0.7,1.6,1.6,1.6
		h0c0.9,0,1.6-0.7,1.6-1.6V5.7C3.1,5.3,2.8,5,2.4,5L2.4,5z"/>
	<path class="st0" d="M1.6,0L1.6,0C0.7,0,0,0.7,0,1.6v1.9c0,0.4,0.3,0.7,0.7,0.7h0V1.7c0-0.5,0.4-0.8,0.8-0.8h0
		c0.5,0,0.8,0.4,0.8,0.8v2.4h0c0.4,0,0.7-0.3,0.7-0.7V1.6C3.1,0.7,2.4,0,1.6,0z"/>
</g>
</svg>
