<!-- Generator: Adobe Illustrator 19.1.0, SVG Export Plug-In  -->
<svg version="1.1"
	 xmlns="http://www.w3.org/2000/svg" xmlns:xlink="http://www.w3.org/1999/xlink" xmlns:a="http://ns.adobe.com/AdobeSVGViewerExtensions/3.0/"
	 x="0px" y="0px" width="6.5px" height="9.1px" viewBox="0 0 6.5 9.1" style="enable-background:new 0 0 6.5 9.1;"
	 xml:space="preserve">
<style type="text/css">
	.st0{fill:#DFDFDE;}
</style>
<defs>
</defs>
<g>
	<path class="st0" d="M4.5,4.6L4.5,4.6c0-0.1,0.1-0.2,0.2-0.2h1.5c0.1,0,0.2,0.1,0.2,0.2v0c0,0.1-0.1,0.2-0.2,0.2H4.8
		C4.6,4.7,4.5,4.7,4.5,4.6z"/>
	<path class="st0" d="M4,5v2.4c0,0.5-0.4,0.8-0.8,0.8h0c-0.5,0-0.8-0.4-0.8-0.8V5h0C1.9,5,1.6,5.3,1.6,5.7v1.9
		c0,0.9,0.7,1.6,1.6,1.6h0c0.9,0,1.6-0.7,1.6-1.6V5.7C4.8,5.3,4.4,5,4,5L4,5z"/>
	<path class="st0" d="M3.2,0L3.2,0C2.3,0,1.6,0.7,1.6,1.6v1.9c0,0.4,0.3,0.7,0.7,0.7h0V1.7c0-0.5,0.4-0.8,0.8-0.8h0
		C3.7,0.9,4,1.3,4,1.7v2.4h0c0.4,0,0.7-0.3,0.7-0.7V1.6C4.8,0.7,4.1,0,3.2,0z"/>
	<path class="st0" d="M0,4.6L0,4.6c0-0.1,0.1-0.2,0.2-0.2h1.5c0.1,0,0.2,0.1,0.2,0.2v0c0,0.1-0.1,0.2-0.2,0.2H0.2
		C0.1,4.7,0,4.7,0,4.6z"/>
	<path class="st0" d="M4.7,4.2L4.7,4.2c0,0,0-0.1,0.1-0.2l1-0.6C5.9,3.4,6,3.4,6,3.5l0,0c0,0,0,0.1-0.1,0.2l-1,0.6
		C4.8,4.3,4.7,4.3,4.7,4.2z"/>
	<path class="st0" d="M4.7,4.9L4.7,4.9c0,0,0.1,0,0.2,0l1,0.6C6,5.6,6,5.7,6,5.7l0,0c0,0-0.1,0-0.2,0l-1-0.6C4.7,5,4.6,5,4.7,4.9z"
		/>
	<path class="st0" d="M1.8,4.9L1.8,4.9c0,0,0,0.1-0.1,0.2l-1,0.6c-0.1,0.1-0.2,0.1-0.2,0l0,0c0,0,0-0.1,0.1-0.2l1-0.6
		C1.7,4.9,1.8,4.9,1.8,4.9z"/>
	<path class="st0" d="M1.8,4.2L1.8,4.2c0,0-0.1,0-0.2,0l-1-0.6C0.5,3.6,0.4,3.5,0.5,3.4l0,0c0,0,0.1,0,0.2,0l1,0.6
		C1.8,4.1,1.9,4.2,1.8,4.2z"/>
</g>
</svg>
