<!-- Generator: Adobe Illustrator 19.1.0, SVG Export Plug-In  -->
<svg version="1.1"
	 xmlns="http://www.w3.org/2000/svg" xmlns:xlink="http://www.w3.org/1999/xlink" xmlns:a="http://ns.adobe.com/AdobeSVGViewerExtensions/3.0/"
	 x="0px" y="0px" width="37.6px" height="42.9px" viewBox="0 0 37.6 42.9" style="enable-background:new 0 0 37.6 42.9;"
	 xml:space="preserve">
<style type="text/css">
	.st0{fill:#A0A0A0;}
</style>
<defs>
</defs>
<g>
	<g>
		<g>
			<path class="st0" d="M18.8,1.4l17.4,10v20.1l-17.4,10l-17.4-10V11.4L18.8,1.4 M18.8,0c-0.2,0-0.5,0.1-0.7,0.2l-17.4,10
				C0.3,10.4,0,10.9,0,11.4v20.1c0,0.5,0.3,0.9,0.7,1.2l17.4,10c0.2,0.1,0.4,0.2,0.7,0.2c0.2,0,0.5-0.1,0.7-0.2l17.4-10
				c0.4-0.2,0.7-0.7,0.7-1.2V11.4c0-0.5-0.3-0.9-0.7-1.2l-17.4-10C19.3,0.1,19.1,0,18.8,0L18.8,0z"/>
		</g>
	</g>
	<g>
		<path class="st0" d="M26.5,14H11.1c-0.4,0-0.7-0.3-0.7-0.7v-8c0-0.2,0.1-0.5,0.3-0.6l7.7-4.4c0.2-0.1,0.5-0.1,0.7,0l7.7,4.4
			C27,4.8,27.1,5,27.1,5.3v8C27.2,13.7,26.9,14,26.5,14z M11.8,12.6h14V5.7l-7-4l-7,4V12.6z"/>
	</g>
	<g>
		<path class="st0" d="M23,23.5h-8.3c-0.4,0-0.7-0.3-0.7-0.7v-9.5c0-0.4,0.3-0.7,0.7-0.7H23c0.4,0,0.7,0.3,0.7,0.7v9.5
			C23.7,23.2,23.4,23.5,23,23.5z M15.4,22.1h7v-8.2h-7V22.1z"/>
	</g>
	<g>
		<path class="st0" d="M20.2,32.2h-2.6c-0.4,0-0.7-0.3-0.7-0.7v-8.7c0-0.4,0.3-0.7,0.7-0.7h2.6c0.4,0,0.7,0.3,0.7,0.7v8.7
			C20.8,31.9,20.5,32.2,20.2,32.2z M18.2,30.8h1.3v-7.3h-1.3V30.8z"/>
	</g>
	<g>
		<path class="st0" d="M36.2,32.2H1.4c-0.4,0-0.7-0.3-0.7-0.7s0.3-0.7,0.7-0.7h34.8c0.4,0,0.7,0.3,0.7,0.7S36.6,32.2,36.2,32.2z"/>
	</g>
</g>
<rect x="20.5" y="23.4" class="st0" width="15.8" height="8.1"/>
<rect x="23.4" y="13.7" class="st0" width="13" height="10.2"/>
<rect x="0.7" y="23.1" class="st0" width="16.3" height="9"/>
<rect x="1.1" y="13.4" class="st0" width="13.9" height="10.5"/>
<rect x="3.7" y="33.2" class="st0" width="29.2" height="1"/>
<rect x="19.2" y="30.8" class="st0" width="16.1" height="2.5"/>
<polygon class="st0" points="26.9,15.7 36.4,14.9 36.2,10.4 26.9,5.1 "/>
<polyline class="st0" points="10.6,13.8 10.7,5.8 1.5,11.4 "/>
<rect x="1.4" y="10.7" class="st0" width="8.7" height="3.6"/>
<polygon class="st0" points="31.6,35.3 18.9,42 4.8,34 31.6,33.7 "/>
</svg>
