<!-- Generator: Adobe Illustrator 19.1.0, SVG Export Plug-In  -->
<svg version="1.1"
	 xmlns="http://www.w3.org/2000/svg" xmlns:xlink="http://www.w3.org/1999/xlink" xmlns:a="http://ns.adobe.com/AdobeSVGViewerExtensions/3.0/"
	 x="0px" y="0px" width="38px" height="43.7px" viewBox="0 0 38 43.7" style="enable-background:new 0 0 38 43.7;"
	 xml:space="preserve">
<style type="text/css">
	.st0{fill:#A0A0A0;}
	.st1{fill:none;stroke:#A0A0A0;stroke-width:0.5;stroke-linecap:round;stroke-linejoin:round;stroke-miterlimit:10;}
</style>
<defs>
</defs>
<g>
	<g>
		<path class="st0" d="M19,0.5l18.5,10.7v21.4L19,43.2L0.5,32.5V11.2L19,0.5 M19,0c-0.1,0-0.2,0-0.2,0.1L0.2,10.7
			C0.1,10.8,0,11,0,11.2v21.4c0,0.2,0.1,0.3,0.2,0.4l18.5,10.7c0.1,0,0.2,0.1,0.2,0.1s0.2,0,0.2-0.1L37.8,33
			c0.2-0.1,0.2-0.3,0.2-0.4V11.2c0-0.2-0.1-0.3-0.2-0.4L19.3,0.1C19.2,0,19.1,0,19,0L19,0z"/>
	</g>
	<g>
		<line class="st1" x1="14.3" y1="19.2" x2="14.3" y2="40.5"/>
		<line class="st1" x1="9.7" y1="16.5" x2="9.7" y2="37.7"/>
		<line class="st1" x1="5.1" y1="13.9" x2="5.1" y2="35"/>
		<line class="st1" x1="19" y1="21.9" x2="19" y2="43.2"/>
		<line class="st1" x1="0.5" y1="11.2" x2="0.5" y2="32.3"/>
		<line class="st1" x1="0.5" y1="21.8" x2="19" y2="32.5"/>
		<line class="st1" x1="0.5" y1="27" x2="19" y2="37.9"/>
		<line class="st1" x1="0.5" y1="32.3" x2="19" y2="43.2"/>
		<line class="st1" x1="0.5" y1="16.5" x2="19" y2="27.2"/>
		<line class="st1" x1="0.5" y1="11.2" x2="19" y2="21.9"/>
	</g>
	<g>
		<line class="st1" x1="23.7" y1="19.2" x2="23.7" y2="40.5"/>
		<line class="st1" x1="28.3" y1="16.5" x2="28.3" y2="37.7"/>
		<line class="st1" x1="32.9" y1="13.9" x2="32.9" y2="35"/>
		<line class="st1" x1="19" y1="21.9" x2="19" y2="43.2"/>
		<line class="st1" x1="37.5" y1="11.2" x2="37.5" y2="32.3"/>
		<line class="st1" x1="37.5" y1="21.8" x2="19" y2="32.5"/>
		<line class="st1" x1="37.5" y1="27" x2="19" y2="37.9"/>
		<line class="st1" x1="37.5" y1="32.3" x2="19" y2="43.2"/>
		<line class="st1" x1="37.5" y1="16.5" x2="19" y2="27.2"/>
		<line class="st1" x1="37.5" y1="11.2" x2="19" y2="21.9"/>
	</g>
	<g>
		<line class="st1" x1="23.6" y1="3.2" x2="5.2" y2="13.9"/>
		<line class="st1" x1="28.3" y1="5.9" x2="9.9" y2="16.5"/>
		<line class="st1" x1="32.9" y1="8.5" x2="14.6" y2="19.1"/>
		<line class="st1" x1="19" y1="0.5" x2="0.5" y2="11.2"/>
		<line class="st1" x1="37.5" y1="11.1" x2="19" y2="21.9"/>
		<line class="st1" x1="28.3" y1="16.4" x2="9.7" y2="5.9"/>
		<line class="st1" x1="23.8" y1="19.1" x2="5.1" y2="8.5"/>
		<line class="st1" x1="19" y1="21.9" x2="0.5" y2="11.2"/>
		<line class="st1" x1="32.9" y1="13.8" x2="14.3" y2="3.2"/>
		<line class="st1" x1="37.5" y1="11.1" x2="19" y2="0.5"/>
	</g>
</g>
</svg>
