<!-- Generator: Adobe Illustrator 19.1.0, SVG Export Plug-In  -->
<svg version="1.1"
	 xmlns="http://www.w3.org/2000/svg" xmlns:xlink="http://www.w3.org/1999/xlink" xmlns:a="http://ns.adobe.com/AdobeSVGViewerExtensions/3.0/"
	 x="0px" y="0px" width="31.7px" height="33.2px" viewBox="0 0 31.7 33.2" style="enable-background:new 0 0 31.7 33.2;"
	 xml:space="preserve">
<style type="text/css">
	.st0{fill:#B3B3B3;}
</style>
<defs>
</defs>
<path class="st0" d="M28.1,16.6c0-0.5,0-1.1-0.1-1.6l3.7-4.2l-2.9-5l-5.5,1.1c-0.9-0.7-1.8-1.2-2.8-1.6L18.7,0h-5.8l-1.8,5.3
	c-1,0.4-1.9,1-2.8,1.6L2.9,5.8l-2.9,5L3.7,15c-0.1,0.5-0.1,1.1-0.1,1.6s0,1.1,0.1,1.6L0,22.4l2.9,5l5.5-1.1c0.9,0.7,1.8,1.2,2.8,1.6
	l1.8,5.3h5.8l1.8-5.3c1-0.4,1.9-1,2.8-1.6l5.5,1.1l2.9-5L28,18.2C28,17.7,28.1,17.2,28.1,16.6z M15.8,21.8c-2.8,0-5.1-2.3-5.1-5.1
	c0-2.8,2.3-5.1,5.1-5.1s5.1,2.3,5.1,5.1C21,19.4,18.7,21.8,15.8,21.8z"/>
</svg>
