<!-- Generator: Adobe Illustrator 19.1.0, SVG Export Plug-In  -->
<svg version="1.1"
	 xmlns="http://www.w3.org/2000/svg" xmlns:xlink="http://www.w3.org/1999/xlink" xmlns:a="http://ns.adobe.com/AdobeSVGViewerExtensions/3.0/"
	 x="0px" y="0px" width="40.9px" height="47.2px" viewBox="0 0 40.9 47.2" style="enable-background:new 0 0 40.9 47.2;"
	 xml:space="preserve">
<style type="text/css">
	.st0{fill:url(#SVGID_1_);}
	.st1{fill:url(#SVGID_2_);}
	.st2{fill:url(#SVGID_3_);}
	.st3{fill:url(#SVGID_4_);}
	.st4{fill:url(#SVGID_5_);}
	.st5{fill:url(#SVGID_6_);}
	.st6{fill:url(#SVGID_7_);}
	.st7{fill:url(#SVGID_8_);}
</style>
<defs>
</defs>
<g>
	
		<linearGradient id="SVGID_1_" gradientUnits="userSpaceOnUse" x1="9.5191" y1="11.0041" x2="37.5072" y2="26.1405" gradientTransform="matrix(1 7.587330e-04 -7.587330e-04 1 1.983625e-02 -1.235447e-02)">
		<stop  offset="0" style="stop-color:#C8C9CA"/>
		<stop  offset="1" style="stop-color:#FFFFFF"/>
	</linearGradient>
	<polygon class="st0" points="20.5,0 14.6,3.4 29.1,11.8 29.1,28.6 20.4,33.6 26.3,37 35,32 35,8.4 	"/>
	
		<linearGradient id="SVGID_2_" gradientUnits="userSpaceOnUse" x1="16.0655" y1="46.9353" x2="16.0655" y2="9.7907" gradientTransform="matrix(1 7.587330e-04 -7.587330e-04 1 1.983625e-02 -1.235447e-02)">
		<stop  offset="0" style="stop-color:#DBDCDC"/>
		<stop  offset="1" style="stop-color:#717071"/>
	</linearGradient>
	<polygon class="st1" points="20.4,47.2 26.3,43.8 11.7,35.4 11.8,18.6 20.4,13.6 14.5,10.2 5.9,15.2 5.8,38.7 	"/>
	<g>
		
			<linearGradient id="SVGID_3_" gradientUnits="userSpaceOnUse" x1="38.3879" y1="10.9712" x2="21.2524" y2="40.7607" gradientTransform="matrix(1 7.587330e-04 -7.587330e-04 1 1.983625e-02 -1.235447e-02)">
			<stop  offset="0" style="stop-color:#DBDCDC"/>
			<stop  offset="1" style="stop-color:#9E9E9F"/>
		</linearGradient>
		<polygon class="st2" points="35,8.4 35,32 26.3,37 11.7,28.6 11.7,35.4 26.3,43.8 40.8,35.4 40.9,11.8 		"/>
		
			<linearGradient id="SVGID_4_" gradientUnits="userSpaceOnUse" x1="14.5576" y1="40.6522" x2="14.5576" y2="2.9367" gradientTransform="matrix(1 7.587330e-04 -7.587330e-04 1 1.983625e-02 -1.235447e-02)">
			<stop  offset="0" style="stop-color:#EEEEEF"/>
			<stop  offset="1" style="stop-color:#9E9E9F"/>
		</linearGradient>
		<polygon class="st3" points="5.9,15.2 14.5,10.2 29.1,18.6 29.1,11.8 14.6,3.4 0,11.8 0,35.4 5.8,38.7 		"/>
	</g>
</g>
</svg>
