<!-- Generator: Adobe Illustrator 19.1.0, SVG Export Plug-In  -->
<svg version="1.1"
	 xmlns="http://www.w3.org/2000/svg" xmlns:xlink="http://www.w3.org/1999/xlink" xmlns:a="http://ns.adobe.com/AdobeSVGViewerExtensions/3.0/"
	 x="0px" y="0px" width="37.6px" height="43.3px" viewBox="0 0 37.6 43.3" style="enable-background:new 0 0 37.6 43.3;"
	 xml:space="preserve">
<style type="text/css">
	.st0{fill:#E0E0DF;}
	.st1{fill:#FFFFFF;stroke:#E0E0DF;stroke-width:0.5;stroke-miterlimit:10;}
	.st2{fill:#FFFFFF;stroke:#E0E0DF;stroke-width:0.4314;stroke-miterlimit:10;}
	.st3{fill:#FFFFFF;}
	.st4{fill:#FFFFFF;stroke:#E0E0DF;stroke-width:0.4548;stroke-miterlimit:10;}
	.st5{fill:#FFFFFF;stroke:#E0E0DF;stroke-width:0.4561;stroke-miterlimit:10;}
	.st6{fill:#FFFFFF;stroke:#E0E0DF;stroke-width:0.509;stroke-miterlimit:10;}
	.st7{fill:none;stroke:#E0E0DF;stroke-width:0.5;stroke-linecap:round;stroke-linejoin:round;stroke-miterlimit:10;}
</style>
<defs>
</defs>
<g>
	<g>
		<polygon class="st0" points="18.8,0.3 0.2,11 0.2,32.4 18.8,43.1 37.3,32.4 37.3,11 		"/>
	</g>
</g>
<g id="圖層_2_拷貝">
	<polyline id="XMLID_12_" class="st1" points="29.7,34.4 29.7,32.2 7.7,32.2 7.7,34.4 	"/>
	<line id="XMLID_11_" class="st2" x1="4" y1="34.4" x2="33.5" y2="34.4"/>
	<polygon id="XMLID_10_" class="st3" points="7.7,6.7 7.7,19.8 29.7,19.8 29.7,6.6 18.8,0.2 	"/>
	<line id="XMLID_9_" class="st4" x1="16.5" y1="1.6" x2="16.5" y2="19.8"/>
	<line id="XMLID_8_" class="st5" x1="20.9" y1="1.5" x2="20.9" y2="19.8"/>
	<line id="XMLID_7_" class="st1" x1="29.7" y1="15.4" x2="7.7" y2="15.4"/>
	<polygon class="st6" points="19.9,20 19.9,22.3 17.6,24.5 17.6,20 	"/>
</g>
<g>
	<path class="st7" d="M18.8,0.2L0.2,10.9v21.4L18.8,43l18.5-10.7V10.9L18.8,0.2z"/>
	<polyline class="st7" points="18.8,43 0.2,32.3 0.2,10.9 	"/>
	<polyline class="st7" points="0.2,10.9 18.8,0.2 37.3,10.9 	"/>
</g>
</svg>
