<?xml version="1.0" encoding="utf-8"?>
<!-- Generator: Adobe Illustrator 19.1.0, SVG Export Plug-In . SVG Version: 6.00 Build 0)  -->
<svg version="1.1" id="圖層_1" xmlns="http://www.w3.org/2000/svg" xmlns:xlink="http://www.w3.org/1999/xlink" x="0px" y="0px"
	 viewBox="-44 43.8 37.5 43.2" style="enable-background:new -44 43.8 37.5 43.2;" xml:space="preserve">
<style type="text/css">
	.st0{fill:#E0E0DF;}
</style>
<g>
	<g>
		<g>
			<path class="st0" d="M-25.3,45.2l17.4,10v20.1l-17.4,10l-17.4-10V55.2L-25.3,45.2 M-25.3,43.8c-0.2,0-0.5,0.1-0.7,0.2l-17.4,10
				c-0.4,0.2-0.7,0.7-0.7,1.2v20.1c0,0.5,0.3,0.9,0.7,1.2l17.4,10c0.2,0.1,0.4,0.2,0.7,0.2c0.2,0,0.5-0.1,0.7-0.2l17.4-10
				c0.4-0.2,0.7-0.7,0.7-1.2V55.2c0-0.5-0.3-0.9-0.7-1.2l-17.4-10C-24.8,43.9-25,43.8-25.3,43.8L-25.3,43.8z"/>
		</g>
	</g>
	<g>
		<path class="st0" d="M-17.6,57.8h-15.4c-0.4,0-0.7-0.3-0.7-0.7v-8c0-0.2,0.1-0.5,0.3-0.6l7.7-4.4c0.2-0.1,0.5-0.1,0.7,0l7.7,4.4
			c0.2,0.1,0.3,0.3,0.3,0.6v8C-16.9,57.5-17.2,57.8-17.6,57.8z M-32.3,56.4h14v-6.9l-7-4l-7,4V56.4z"/>
	</g>
	<g>
		<path class="st0" d="M-21.1,67.3h-8.3c-0.4,0-0.7-0.3-0.7-0.7v-9.5c0-0.4,0.3-0.7,0.7-0.7h8.3c0.4,0,0.7,0.3,0.7,0.7v9.5
			C-20.4,67-20.7,67.3-21.1,67.3z M-28.7,65.9h7v-8.2h-7V65.9z"/>
	</g>
	<g>
		<path class="st0" d="M-23.9,76h-2.6c-0.4,0-0.7-0.3-0.7-0.7v-8.7c0-0.4,0.3-0.7,0.7-0.7h2.6c0.4,0,0.7,0.3,0.7,0.7v8.7
			C-23.3,75.7-23.6,76-23.9,76z M-25.9,74.6h1.3v-7.3h-1.3V74.6z"/>
	</g>
	<g>
		<path class="st0" d="M-7.9,76h-34.8c-0.4,0-0.7-0.3-0.7-0.7s0.3-0.7,0.7-0.7h34.8c0.4,0,0.7,0.3,0.7,0.7S-7.5,76-7.9,76z"/>
	</g>
</g>
<rect x="-23.6" y="67.2" class="st0" width="15.8" height="8.1"/>
<rect x="-20.7" y="57.5" class="st0" width="13" height="10.2"/>
<rect x="-42.6" y="66.9" class="st0" width="15.5" height="8.4"/>
<rect x="-43" y="57.2" class="st0" width="13.9" height="10.5"/>
<rect x="-40.4" y="77" class="st0" width="29.2" height="1"/>
<rect x="-24.9" y="74.6" class="st0" width="16.1" height="2.5"/>
<polygon class="st0" points="-17.2,59.5 -7.7,58.7 -7.9,54.2 -17.2,48.9 "/>
<polyline class="st0" points="-33.5,57.6 -33.4,49.6 -42.6,55.2 "/>
<rect x="-42.7" y="55.3" class="st0" width="8.7" height="2.8"/>
<polygon class="st0" points="-12.5,79.1 -25.2,85.8 -39.3,77.8 -12.5,77.5 "/>
</svg>
