<!-- Generator: Adobe Illustrator 19.1.0, SVG Export Plug-In  -->
<svg version="1.1"
	 xmlns="http://www.w3.org/2000/svg" xmlns:xlink="http://www.w3.org/1999/xlink" xmlns:a="http://ns.adobe.com/AdobeSVGViewerExtensions/3.0/"
	 x="0px" y="0px" width="38px" height="43.9px" viewBox="0 0 38 43.9" style="enable-background:new 0 0 38 43.9;"
	 xml:space="preserve">
<style type="text/css">
	.st0{fill:#A0A0A0;}
	.st1{fill:#A0A0A0;}
</style>
<defs>
</defs>
<g>
	<path class="st0" d="M19,0.5c0.2,0,0.3,0.1,0.3,0.3V20l1.2-4.4c0-0.1,0.1-0.2,0.3-0.2c0,0,0.1,0,0.1,0c0.2,0,0.2,0.2,0.2,0.4
		L19.9,20l3.4-5.9c0.1-0.1,0.1-0.1,0.2-0.1c0,0,0.1,0,0.1,0c0.1,0.1,0.2,0.3,0.1,0.4l-3.5,6l3.2-3.2c0.1-0.1,0.1-0.1,0.2-0.1
		s0.1,0,0.2,0.1c0.1,0.1,0.1,0.3,0,0.4l-3.2,3.1l5.9-3.4c0,0,0.1,0,0.1,0c0.1,0,0.2,0.1,0.2,0.1c0.1,0.1,0,0.3-0.1,0.4l-6,3.5
		l4.4-1.1c0,0,0,0,0.1,0c0.1,0,0.3,0.1,0.3,0.2c0,0.2-0.1,0.3-0.2,0.4l-4.3,1.1h6.8c0.2,0,0.3,0.1,0.3,0.3c0,0.2-0.1,0.3-0.3,0.3
		h-6.9l4.4,1.2c0.2,0,0.2,0.2,0.2,0.4c0,0.1-0.2,0.2-0.3,0.2c0,0-0.1,0-0.1,0L21.1,23l5.9,3.4c0.1,0.1,0.2,0.3,0.1,0.4
		c-0.1,0.1-0.2,0.1-0.3,0.1c0,0-0.1,0-0.1,0l-6-3.5l3.2,3.2c0.1,0.1,0.1,0.3,0,0.4c-0.1,0.1-0.1,0.1-0.2,0.1c-0.1,0-0.1,0-0.2-0.1
		l-3.1-3.1l3.4,5.9c0.1,0.1,0,0.3-0.1,0.4c0,0-0.1,0-0.1,0c-0.1,0-0.2-0.1-0.3-0.1l-3.5-6l1.1,4.4c0,0.2-0.1,0.3-0.2,0.4
		c0,0,0,0-0.1,0c-0.1,0-0.2-0.1-0.3-0.2l-1.1-4.3v6.8c0,0.2-0.1,0.3-0.3,0.3c-0.2,0-0.3-0.1-0.3-0.3v-6.9l-1.2,4.4
		c0,0.1-0.2,0.2-0.3,0.2c0,0-0.1,0-0.1,0c-0.2,0-0.2-0.2-0.2-0.4l1.2-4.2l-3.4,5.9c-0.1,0.1-0.2,0.1-0.3,0.1c0,0-0.1,0-0.1,0
		c-0.1-0.1-0.2-0.3-0.1-0.4l3.5-6L14.5,27c-0.1,0.1-0.1,0.1-0.2,0.1s-0.1,0-0.2-0.1c-0.1-0.1-0.1-0.3,0-0.4l3.2-3.1l-5.9,3.4
		c0,0-0.1,0-0.1,0c-0.1,0-0.2-0.1-0.2-0.1c-0.1-0.1,0-0.3,0.1-0.4l6-3.5l-4.4,1.1c0,0,0,0-0.1,0c-0.1,0-0.2-0.1-0.3-0.2
		c0-0.2,0.1-0.3,0.2-0.4l4.3-1.1H9.9c-0.2,0-0.3-0.1-0.3-0.3c0-0.2,0.1-0.3,0.3-0.3h7l-4.4-1.2c-0.2,0-0.2-0.2-0.2-0.4
		c0-0.1,0.1-0.2,0.3-0.2c0,0,0.1,0,0.1,0l4.3,1.2L11,17.8c-0.1-0.1-0.2-0.3-0.1-0.4c0.1-0.1,0.1-0.1,0.2-0.1c0,0,0.1,0,0.1,0l6,3.5
		l-3.2-3.2c-0.1-0.1-0.1-0.3,0-0.4c0.1-0.1,0.1-0.1,0.2-0.1s0.1,0,0.2,0.1l3.1,3.1l-3.4-5.9c-0.1-0.1,0-0.3,0.1-0.4c0,0,0.1,0,0.1,0
		c0.1,0,0.2,0.1,0.2,0.1l3.5,6L17,15.7c0-0.2,0.1-0.3,0.2-0.4c0,0,0.1,0,0.1,0c0.1,0,0.2,0.1,0.3,0.2l1.1,4.3V0.8
		C18.7,0.6,18.8,0.5,19,0.5 M19,0c-0.4,0-0.8,0.4-0.8,0.8V16l-0.1-0.5c-0.1-0.4-0.4-0.6-0.8-0.6c-0.1,0-0.1,0-0.2,0
		c-0.4,0.1-0.7,0.5-0.6,1l0.2,0.8l-1.6-2.8c-0.1-0.2-0.4-0.4-0.7-0.4c-0.1,0-0.3,0-0.4,0.1c-0.4,0.2-0.5,0.7-0.3,1.1l1.5,2.6
		l-0.4-0.4c-0.2-0.2-0.3-0.2-0.6-0.2c-0.2,0-0.4,0.1-0.6,0.2c-0.1,0.1-0.2,0.3-0.2,0.5c0,0.2,0.1,0.4,0.2,0.6l0.6,0.6l-2.8-1.6
		c-0.1-0.1-0.3-0.1-0.4-0.1c-0.3,0-0.5,0.1-0.7,0.4c-0.2,0.4-0.1,0.9,0.3,1.1l2.6,1.5l-0.5-0.1c-0.1,0-0.2,0-0.3,0
		c-0.3,0-0.6,0.2-0.7,0.6c-0.1,0.2,0,0.4,0.1,0.6c0.1,0.2,0.3,0.3,0.5,0.4l0.8,0.2H9.9c-0.4,0-0.8,0.4-0.8,0.8
		c0,0.4,0.4,0.8,0.8,0.8h3L12.4,23c-0.4,0.1-0.7,0.5-0.6,1c0.1,0.3,0.4,0.6,0.8,0.6c0,0,0.1,0,0.2,0l0.8-0.2L10.7,26
		c-0.4,0.2-0.5,0.7-0.3,1.1c0.1,0.2,0.4,0.4,0.7,0.4c0.1,0,0.3,0,0.4-0.1l2.6-1.5l-0.4,0.4c-0.1,0.1-0.2,0.3-0.2,0.5
		c0,0.2,0.1,0.4,0.2,0.6c0.1,0.1,0.4,0.2,0.6,0.2c0.2,0,0.4-0.1,0.6-0.2l0.6-0.6l-1.6,2.8c-0.2,0.4-0.1,0.9,0.3,1.1
		c0.1,0.1,0.2,0.1,0.4,0.1c0.3,0,0.5-0.1,0.7-0.4l1.5-2.6l-0.1,0.5c-0.1,0.2,0,0.4,0.1,0.6c0.1,0.2,0.3,0.3,0.4,0.4
		c0.1,0,0.2,0,0.2,0c0.3,0,0.7-0.2,0.8-0.6l0.2-0.8v3.2c0,0.4,0.4,0.8,0.8,0.8s0.8-0.4,0.8-0.8v-3l0.1,0.5c0.1,0.3,0.4,0.6,0.8,0.6
		c0,0,0.1,0,0.2,0c0.4-0.1,0.7-0.6,0.6-1l-0.2-0.8l1.6,2.8c0.1,0.2,0.4,0.4,0.7,0.4c0.1,0,0.3,0,0.4-0.1c0.4-0.2,0.5-0.7,0.3-1.1
		L22.8,27l0.4,0.4c0.1,0.1,0.4,0.2,0.6,0.2c0.2,0,0.4-0.1,0.6-0.2c0.1-0.1,0.2-0.3,0.2-0.5c0-0.2-0.1-0.4-0.2-0.6l-0.6-0.6l2.8,1.6
		c0.1,0.1,0.2,0.1,0.4,0.1c0.3,0,0.5-0.1,0.7-0.4c0.2-0.4,0.1-0.9-0.3-1.1l-2.6-1.5l0.5,0.1c0.1,0,0.2,0,0.2,0
		c0.3,0,0.7-0.2,0.8-0.6c0.1-0.2,0-0.4-0.1-0.6c-0.1-0.2-0.3-0.3-0.5-0.4l-0.8-0.2h3.2c0.4,0,0.8-0.4,0.8-0.8c0-0.4-0.4-0.8-0.8-0.8
		h-2.9l0.5-0.1c0.4-0.1,0.7-0.5,0.6-1c-0.1-0.3-0.4-0.6-0.8-0.6c0,0-0.1,0-0.1,0l-0.8,0.2l2.8-1.6c0.4-0.2,0.5-0.7,0.3-1.1
		c-0.1-0.2-0.4-0.4-0.7-0.4c-0.1,0-0.3,0-0.4,0.1l-2.6,1.5l0.4-0.4c0.1-0.1,0.2-0.3,0.2-0.5c0-0.2-0.1-0.4-0.2-0.6
		c-0.1-0.1-0.3-0.2-0.6-0.2s-0.4,0.1-0.6,0.2l-0.6,0.6l1.6-2.8c0.2-0.4,0.1-0.9-0.3-1.1c-0.1-0.1-0.2-0.1-0.4-0.1
		c-0.3,0-0.5,0.1-0.7,0.4l-1.5,2.6l0.1-0.5c0.1-0.2,0-0.4-0.1-0.6c-0.1-0.2-0.3-0.3-0.4-0.4c-0.1,0-0.2,0-0.3,0
		c-0.3,0-0.6,0.2-0.7,0.6l-0.2,0.8V0.8C19.8,0.4,19.4,0,19,0L19,0z"/>
</g>
<g>
	<path class="st1" d="M19,0.6l18.5,10.7v21.4L19,43.4L0.5,32.7V11.3L19,0.6 M19,0.1c-0.1,0-0.2,0-0.2,0.1L0.2,10.9
		C0.1,11,0,11.1,0,11.3v21.4c0,0.2,0.1,0.3,0.2,0.4l18.5,10.7c0.1,0,0.2,0.1,0.2,0.1s0.2,0,0.2-0.1l18.5-10.7
		c0.2-0.1,0.2-0.3,0.2-0.4V11.3c0-0.2-0.1-0.3-0.2-0.4L19.3,0.2C19.2,0.2,19.1,0.1,19,0.1L19,0.1z"/>
</g>
</svg>
