<?xml version="1.0"?>
<svg xmlns="http://www.w3.org/2000/svg" viewBox="0 0 30 30" width="60px" height="60px">
    <path d="M 21 3 L 18 6 L 24 12 L 27 9 L 21 3 z M 16.070312 8.0058594 C 15.582438 7.9916094 15.088312 8.1555938 14.695312 8.4960938 L 14.693359 8.4921875 C 13.635359 9.5501875 12 10 10 10 C 8.36 10 7.2731719 11.009922 6.7011719 12.919922 C 4.9871719 18.646922 3.6512656 22.726719 3.1972656 24.136719 L 3.203125 24.138672 C 3.076125 24.399672 3 24.69 3 25 C 3 25.178 3.0312188 25.346719 3.0742188 25.511719 L 11.074219 17.511719 C 11.031219 17.346719 11 17.178 11 17 C 11 15.895 11.895 15 13 15 C 13.552 15 14.052062 15.223937 14.414062 15.585938 C 14.776063 15.947938 15 16.448 15 17 C 15 18.105 14.105 19 13 19 C 12.822 19 12.653281 18.968781 12.488281 18.925781 L 4.4882812 26.925781 C 4.6532813 26.968781 4.822 27 5 27 C 5.31 27 5.6003281 26.924828 5.8613281 26.798828 L 5.8632812 26.802734 C 7.2732813 26.348734 11.353078 25.014781 17.080078 23.300781 C 18.990078 22.727781 20 21.64 20 20 C 20 18 20.449812 16.364641 21.507812 15.306641 L 21.503906 15.304688 C 22.184906 14.518688 22.161063 13.331937 21.414062 12.585938 L 19.414062 10.585938 L 17.414062 8.5859375 C 17.040563 8.2124375 16.558187 8.0201094 16.070312 8.0058594 z"/>
</svg>
