<?xml version="1.0"?>
<svg xmlns="http://www.w3.org/2000/svg" viewBox="0 0 30 30" width="60px" height="60px">
    <path d="M 6 4 C 4.895 4 4 4.895 4 6 L 4 8 L 8 8 L 8 4 L 6 4 z M 10 4 L 10 8 L 14 8 L 14 4 L 10 4 z M 16 4 L 16 8 L 20 8 L 20 4 L 16 4 z M 22 4 L 22 8 L 26 8 L 26 6 C 26 4.895 25.105 4 24 4 L 22 4 z M 4 10 L 4 14 L 8 14 L 8 10 L 4 10 z M 10 10 L 10 14 L 14 14 L 14 10 L 10 10 z M 16 10 L 16 14 L 20 14 L 20 10 L 16 10 z M 22 10 L 22 14 L 26 14 L 26 10 L 22 10 z M 4 16 L 4 20 L 8 20 L 8 16 L 4 16 z M 10 16 L 10 20 L 14 20 L 14 16 L 10 16 z M 16 16 L 16 20 L 20 20 L 20 16 L 16 16 z M 22 16 L 22 20 L 26 20 L 26 16 L 22 16 z M 4 22 L 4 24 C 4 25.105 4.895 26 6 26 L 8 26 L 8 22 L 4 22 z M 10 22 L 10 26 L 14 26 L 14 22 L 10 22 z M 16 22 L 16 26 L 20 26 L 20 22 L 16 22 z M 22 22 L 22 26 L 24 26 C 25.105 26 26 25.105 26 24 L 26 22 L 22 22 z"/>
</svg>
