<?xml version="1.0"?>
<svg xmlns="http://www.w3.org/2000/svg" viewBox="0 0 30 30" width="60px" height="60px">
    <path d="M 14.970703 3.9726562 A 2.0002 2.0002 0 0 0 14.685547 4 L 7 4 L 6 4 C 5.448 4 5 4.448 5 5 L 5 8 C 5 8.552 5.448 9 6 9 L 7 9 C 7.552 9 8 8.552 8 8 L 8 7 L 13 7 L 13 23 L 12 23 C 11.448 23 11 23.448 11 24 L 11 25 C 11 25.552 11.448 26 12 26 L 14.675781 26 A 2.0002 2.0002 0 0 0 15.324219 26 L 18 26 C 18.552 26 19 25.552 19 25 L 19 24 C 19 23.448 18.552 23 18 23 L 17 23 L 17 7 L 22 7 L 22 8 C 22 8.552 22.448 9 23 9 L 24 9 C 24.552 9 25 8.552 25 8 L 25 5 C 25 4.448 24.552 4 24 4 L 23 4 L 15.320312 4 A 2.0002 2.0002 0 0 0 14.970703 3.9726562 z"/>
</svg>
